<svg width="61" height="61" viewBox="0 0 61 61" fill="none" xmlns="http://www.w3.org/2000/svg">
<path d="M41.9652 5.0957H18.4528C18.0211 5.09812 17.5942 5.18616 17.1969 5.35473C16.7995 5.5233 16.4395 5.76905 16.1378 6.07773C15.8361 6.38641 15.5987 6.7519 15.4392 7.15301C15.2798 7.55412 15.2015 7.98288 15.209 8.41445V53.4145C15.2139 54.2732 15.5572 55.0954 16.1645 55.7027C16.7718 56.31 17.594 56.6533 18.4528 56.6582H41.9652C42.824 56.6533 43.6462 56.31 44.2535 55.7027C44.8607 55.0954 45.2041 54.2732 45.209 53.4145V8.41445C45.2164 7.98288 45.1382 7.55412 44.9787 7.15301C44.8193 6.7519 44.5818 6.38641 44.2801 6.07773C43.9784 5.76905 43.6184 5.5233 43.2211 5.35473C42.8237 5.18616 42.3968 5.09812 41.9652 5.0957ZM43.334 53.4145C43.334 53.7775 43.1898 54.1256 42.9331 54.3823C42.6764 54.639 42.3282 54.7832 41.9652 54.7832H18.4528C18.0897 54.7832 17.7416 54.639 17.4849 54.3823C17.2282 54.1256 17.084 53.7775 17.084 53.4145V8.41445C17.084 8.05144 17.2282 7.70329 17.4849 7.4466C17.7416 7.18991 18.0897 7.0457 18.4528 7.0457H41.9652C42.3282 7.0457 42.6764 7.18991 42.9331 7.4466C43.1898 7.70329 43.334 8.05144 43.334 8.41445V53.4145Z" fill="#0A2540"/>
<path d="M44.2715 12.1646H15.209V14.0396H44.2715V12.1646Z" fill="#0A2540"/>
<path d="M44.2715 49.6646H15.209V51.5396H44.2715V49.6646Z" fill="#0A2540"/>
<path d="M34.9901 10.7268H25.4276C25.179 10.7268 24.9405 10.628 24.7647 10.4522C24.5888 10.2764 24.4901 10.0379 24.4901 9.78931C24.4901 9.54067 24.5888 9.30221 24.7647 9.12639C24.9405 8.95058 25.179 8.85181 25.4276 8.85181H34.9901C35.2387 8.85181 35.4772 8.95058 35.653 9.12639C35.8288 9.30221 35.9276 9.54067 35.9276 9.78931C35.9276 10.0379 35.8288 10.2764 35.653 10.4522C35.4772 10.628 35.2387 10.7268 34.9901 10.7268Z" fill="#0A2540"/>
<path d="M33.0214 54.1777H27.3964C27.1477 54.1777 26.9093 54.079 26.7335 53.9031C26.5576 53.7273 26.4589 53.4889 26.4589 53.2402C26.4589 52.9916 26.5576 52.7531 26.7335 52.5773C26.9093 52.4015 27.1477 52.3027 27.3964 52.3027H33.0214C33.27 52.3027 33.5084 52.4015 33.6843 52.5773C33.8601 52.7531 33.9589 52.9916 33.9589 53.2402C33.9589 53.4889 33.8601 53.7273 33.6843 53.9031C33.5084 54.079 33.27 54.1777 33.0214 54.1777Z" fill="#0A2540"/>
<path d="M33.6809 25.6606C33.7546 25.5611 33.8508 25.4804 33.9615 25.425C34.0723 25.3696 34.1946 25.3411 34.3184 25.3419C34.5088 25.3472 34.6927 25.4129 34.8434 25.5294L40.5997 30.2356C40.7 30.3171 40.7807 30.42 40.8359 30.5368C40.891 30.6537 40.9193 30.7814 40.9184 30.9106C40.9157 31.0411 40.8839 31.1693 40.8256 31.2861C40.7672 31.4028 40.6836 31.5051 40.5809 31.5856L34.8059 35.8981C34.6339 36.0272 34.42 36.0874 34.2059 36.0669C33.982 36.0309 33.7805 35.9101 33.6434 35.7294C33.5195 35.5501 33.468 35.3306 33.4993 35.115C33.5306 34.8993 33.6424 34.7035 33.8122 34.5669L38.7621 30.8169L33.7934 26.7481C33.6415 26.6141 33.5455 26.4279 33.5247 26.2263C33.5039 26.0248 33.5596 25.8229 33.6809 25.6606Z" fill="#0066B3"/>
<g clip-path="url(#clip0_903_41407)">
<path d="M27.0906 35.6219C27.0181 35.7199 26.9234 35.7994 26.8143 35.854C26.7052 35.9085 26.5848 35.9365 26.4629 35.9358C26.2754 35.9305 26.0944 35.8659 25.9459 35.7512L20.2778 31.117C20.179 31.0368 20.0995 30.9354 20.0452 30.8203C19.9909 30.7053 19.9631 30.5795 19.9639 30.4523C19.9666 30.3238 19.9979 30.1975 20.0553 30.0826C20.1128 29.9676 20.1951 29.8669 20.2963 29.7876L25.9828 25.5411C26.1522 25.414 26.3629 25.3548 26.5737 25.375C26.7942 25.4103 26.9926 25.5294 27.1275 25.7073C27.2496 25.8838 27.3003 26.1 27.2695 26.3123C27.2386 26.5247 27.1286 26.7175 26.9614 26.852L22.0872 30.5446L26.9799 34.5511C27.1295 34.683 27.2239 34.8664 27.2445 35.0649C27.265 35.2633 27.2101 35.4622 27.0906 35.6219Z" fill="#0066B3"/>
</g>
<g clip-path="url(#clip1_903_41407)">
<path d="M32.9429 23.5658L28.678 38.5947C28.6301 38.7638 28.5286 38.9128 28.3888 39.0194C28.2489 39.1259 28.0783 39.1842 27.9026 39.1855H27.681C27.4714 39.1252 27.294 38.985 27.1869 38.795C27.0798 38.605 27.0517 38.3806 27.1087 38.1701L31.3736 23.1412C31.4357 22.9322 31.5741 22.7542 31.7613 22.6427C31.8607 22.601 31.9674 22.5796 32.0752 22.5796C32.1829 22.5796 32.2897 22.601 32.3891 22.6427C32.5759 22.7058 32.7343 22.8333 32.8358 23.0024C32.9372 23.1715 32.9752 23.3712 32.9429 23.5658Z" fill="#0066B3"/>
</g>
<defs>
<clipPath id="clip0_903_41407">
<rect width="7.31442" height="10.5647" fill="white" transform="translate(19.9639 25.3711)"/>
</clipPath>
<clipPath id="clip1_903_41407">
<rect width="5.87431" height="16.6059" fill="white" transform="translate(27.0798 22.5796)"/>
</clipPath>
</defs>
</svg>
